# AST/ASF file generated using VICON BodyLanguage
# -----------------------------------------------
:version 1.10
:name VICON
:units
  mass 1.0
  length 0.45
  angle deg
:documentation
   .ast/.asf automatically generated from VICON data using
   VICON BodyBuilder and BodyLanguage model FoxedUp or BRILLIANT.MOD
:root
   order TX TY TZ RX RY RZ
   axis XYZ
   position 0 0 0  
   orientation 0 0 0 
:bonedata
  begin
     id 1 
     name lhipjoint
     direction 0.62366 -0.717238 0.310833 
     length 2.53602 
     axis 0 0 0  XYZ
  end
  begin
     id 2 
     name lfemur
     direction 0.34202 -0.939693 0  
     length 7.40817  
     axis 0 0 20  XYZ
    dof rx ry rz
    limits (-160.0 20.0)
           (-70.0 70.0)
           (-60.0 70.0)
  end
  begin
     id 3 
     name ltibia
     direction 0.34202 -0.939693 0   
     length 7.7045   
     axis 0 0 20   XYZ
    dof rx
    limits (-10.0 170.0)
  end
  begin
     id 4 
     name lfoot
     direction 0.0673888 -0.185149 0.980397   
     length 2.09456   
     axis -90 7.62852e-016 20   XYZ
    dof rx rz
    limits (-45.0 90.0)
           (-70.0 20.0)
  end
  begin
     id 5 
     name ltoes
     direction 1.53575e-011 -4.21994e-011 1   
     length 1.05543   
     axis -90 7.62852e-016 20   XYZ
    dof rx
    limits (-90.0 20.0)
  end
  begin
     id 6 
     name rhipjoint
     direction -0.489018 -0.800347 0.346851   
     length 2.27268  
     axis 0 0 0  XYZ 
  end
  begin
     id 7 
     name rfemur
     direction -0.34202 -0.939693 0   
     length 7.55487   
     axis 0 0 -20   XYZ
    dof rx ry rz
    limits (-160.0 20.0)
           (-70.0 70.0)
           (-70.0 60.0)
  end
  begin
     id 8 
     name rtibia
     direction -0.34202 -0.939693 0   
     length 7.78969   
     axis 0 0 -20   XYZ
    dof rx
    limits (-10.0 170.0)
 end
 begin
     id 9 
     name rfoot
     direction -0.0859318 -0.236096 0.967923   
     length 2.19143  
     axis -90 -7.62852e-016 -20   XYZ
    dof rx rz
    limits (-45.0 90.0)
           (-20.0 70.0)
  end
  begin
     id 10 
     name rtoes
     direction -1.53538e-011 -4.21989e-011 1   
     length 1.09845   
     axis -90 -7.62852e-016 -20   XYZ
    dof rx
    limits (-90.0 20.0)
  end
  begin
     id 11 
     name lowerback
     direction -0.00762546 0.998978 -0.0445553   
     length 1.98161   
     axis 0 0 0   XYZ
    dof rx ry rz
    limits (-20.0 45.0)
           (-30.0 30.0)
           (-30.0 30.0)
  end
  begin
     id 12 
     name upperback
     direction 0.0422361 0.998867 -0.0219156   
     length 1.97558   
     axis 0 0 0   XYZ
    dof rx ry rz
    limits (-20.0 45.0)
           (-30.0 30.0)
           (-30.0 30.0)
  end
  begin
     id 13 
     name thorax
     direction 0.0442465 0.999021 7.47603e-005   
     length 1.97799   
     axis 0 0 0   XYZ
    dof rx ry rz
    limits (-20.0 45.0)
           (-30.0 30.0)
           (-30.0 30.0)
  end
  begin
     id 14 
     name lowerneck
     direction 0.00312169 0.984641 0.174564   
     length 1.78995   
     axis 0 0 0   XYZ
    dof rx ry rz
    limits (-20.0 45.0)
           (-30.0 30.0)
           (-30.0 30.0)
  end
  begin
     id 15 
     name upperneck
     direction -0.0383028 0.985255 -0.166749   
     length 1.83053   
     axis 0 0 0   XYZ
    dof rx ry rz
    limits (-20.0 45.0)
           (-30.0 30.0)
           (-30.0 30.0)
  end
  begin
     id 16
     name head
     direction -0.0129546 0.997059 -0.0755386  
     length 1.84088  
     axis 0 0 0   XYZ
    dof rx ry rz
    limits (-20.0 45.0)
           (-30.0 30.0)
           (-30.0 30.0)
  end
  begin
     id 17 
     name lclavicle
     direction 0.912857 0.370519 -0.171488  
     length 3.51279  
     axis 0 0 0   XYZ
    dof ry rz
    limits (-20.0 10.0)
           (0.0 20.0)
  end
  begin
     id 18 
     name lhumerus
     direction 1 -4.48962e-011 3.64361e-027   
     length 4.95663   
     axis 180 -30 -90   XYZ
    dof rx ry rz
    limits (-60.0 90.0)
           (-90.0 90.0)
           (-90.0 90.0)
  end
  begin
     id 19
     name lradius
     direction 1 -4.48974e-011 5.97202e-027   
     length 3.38177   
     axis 180 -30 -90   XYZ
    dof rx
    limits (-10.0 170.0)
  end
  begin
     id 20
     name lwrist
     direction 1 -4.4896e-011 9.83288e-027   
     length 1.69088   
     axis -9.31221e-015 90 90   XYZ
    dof ry
    limits (-180.0 0.0)
 end
  begin
     id 21 
     name lhand
     direction 1 -4.4902e-011 1.96551e-026   
     length 0.662909   
     axis -1.25475e-014 90 90   XYZ
    dof rx rz
    limits (-90.0 90.0)
           (-45.0 45.0)
  end
  begin
     id 22 
     name lfingers
     direction 1 -4.48971e-011 3.93277e-026   
     length 0.534454   
     axis -2.50945e-014 90 90   XYZ
    dof rx
    limits (0.0 90.0)
  end
  begin
     id 23
     name lthumb
     direction 0.707107 -6.34933e-011 0.707107   
     length 0.767373   
     axis -90 45 -4.80359e-014   XYZ
    dof rx rz
    limits (-45.0 45.0)
           (-45.0 45.0)
  end
  begin
     id 24 
     name rclavicle
     direction -0.900919 0.395364 -0.178976   
     length 3.40627  
     axis 0 0 0   XYZ 
    dof ry rz
    limits (-10.0 20.0)
           (-20.0 0.0)
  end
  begin
     id 25 
     name rhumerus
     direction -1 -4.48969e-011 1.03875e-027  
     length 5.08365   
     axis 180 30 90   XYZ
    dof rx ry rz
    limits (-90.0 60.0)
           (-90.0 90.0)
           (-90.0 90.0)
  end
  begin
     id 26 
     name rradius
     direction -1 -4.48951e-011 5.02733e-027   
     length 3.35984   
     axis 180 30 90   XYZ
    dof rx
    limits (-10.0 170.0)
  end
  begin
     id 27 
     name rwrist
     direction -1 -4.49011e-011 9.82828e-027   
     length 1.67992   
     axis -9.31221e-015 -90 -90   XYZ
    dof ry
    limits (-180.0 0.0)
  end
  begin
     id 28
     name rhand
     direction -1 -4.48894e-011 1.96774e-026   
     length 0.820764   
     axis -1.25475e-014 -90 -90   XYZ
    dof rx rz
    limits (-90.0 90.0)
           (-45.0 45.0)
  end
  begin
     id 29
     name rfingers
     direction -1 -4.49095e-011 3.92833e-026   
     length 0.661721   
     axis -2.50945e-014 -90 -90   XYZ
    dof rx
    limits (0.0 90.0)
  end
  begin
     id 30
     name rthumb
     direction -0.707107 -6.34881e-011 0.707107   
     length 0.950103   
     axis -90 -45 4.80359e-014   XYZ
    dof rx rz
    limits (-45.0 45.0)
           (-45.0 45.0)
  end
:hierarchy
  begin
    root lhipjoint rhipjoint lowerback
    lhipjoint lfemur
    lfemur ltibia
    ltibia lfoot
    lfoot ltoes
    rhipjoint rfemur
    rfemur rtibia
    rtibia rfoot
    rfoot rtoes
    lowerback upperback
    upperback thorax
    thorax lowerneck lclavicle rclavicle
    lowerneck upperneck
    upperneck head
    lclavicle lhumerus
    lhumerus lradius
    lradius lwrist
    lwrist lhand lthumb
    lhand lfingers
    rclavicle rhumerus
    rhumerus rradius
    rradius rwrist
    rwrist rhand rthumb
    rhand rfingers
  end

#!OML:ASF I:\golf\golf\golf 2\Subject 1\2002-09-07\Subject1.ASF
:FULLY-SPECIFIED
:DEGREES
46
root -8.09337 17.8117 0.166708 -118.566 85.6769 -132.601
lowerback 3.7216 1.45184 -1.36769
upperback 4.59157 2.00428 4.41802
thorax 2.44754 0.960351 5.31559
lowerneck -15.5805 -2.13834 1.67256
upperneck 38.9654 -0.0418359 -4.71933
head 16.6697 0.125725 -2.24326
rclavicle -4.37326e-015 5.80451e-014
rhumerus -1.28415 -2.99762 -100.14
rradius 19.4845
rwrist -31.6444
rhand -13.663 -8.41801
rfingers 7.12502
rthumb 12.454 -38.0269
lclavicle -4.37326e-015 5.80451e-014
lhumerus -6.09389 -36.4869 110.727
lradius 24.4384
lwrist 39.0909
lhand 169.9 62.8836
lfingers 7.12502
lthumb -164.112 33.5153
rfemur -26.0478 -0.319966 11.5352
rtibia 27.0271
rfoot -9.51651 -11.1925
rtoes -3.1505
lfemur -28.5814 5.84349 -8.44834
ltibia 28.0278
lfoot -9.83083 -2.80246
ltoes -20.9024
47
root -8.09175 17.8097 0.165767 -119.087 85.6873 -133.125
lowerback 3.68104 1.43388 -1.33004
upperback 4.62399 1.98028 4.38083
thorax 2.50859 0.948385 5.25777
lowerneck -15.5857 -2.12527 1.66939
upperneck 38.9384 -0.0498187 -4.66272
head 16.6562 0.127948 -2.21838
rclavicle 2.5842e-014 1.66979e-014
rhumerus -1.22288 -2.93578 -100.201
rradius 19.475
rwrist -31.7247
rhand -13.8785 -8.43091
rfingers 7.12502
rthumb 12.2463 -38.0524
lclavicle 2.5842e-014 1.66979e-014
lhumerus -5.99688 -36.6393 110.626
lradius 24.4129
lwrist 39.1739
lhand 169.822 62.9434
lfingers 7.12502
lthumb -164.188 33.5691
rfemur -26.0343 -0.397903 11.5141
rtibia 27.017
rfoot -9.47465 -11.1754
rtoes -3.40251
lfemur -28.6302 5.83585 -8.49513
ltibia 28.0813
lfoot -9.92496 -2.72437
ltoes -21.4307
48
root -8.08987 17.8113 0.165683 -119.428 85.6935 -133.484
lowerback 3.67323 1.43377 -1.34924
upperback 4.61508 1.97958 4.38499
thorax 2.5031 0.947496 5.27309
lowerneck -15.5648 -2.14008 1.64845
upperneck 38.9453 -0.0685266 -4.64772
head 16.6538 0.120131 -2.21098
rclavicle 1.86858e-014 -2.06736e-014
rhumerus -1.2079 -2.98318 -100.207
rradius 19.4374
rwrist -31.6933
rhand -14.0108 -8.40054
rfingers 7.12502
rthumb 12.1187 -38.0296
lclavicle 1.86858e-014 -2.06736e-014
lhumerus -5.99489 -36.6814 110.637
lradius 24.3924
lwrist 39.1524
lhand 169.66 62.9106
lfingers 7.12502
lthumb -164.344 33.524
rfemur -26.0436 -0.418376 11.4861
rtibia 27.016
rfoot -9.55073 -11.1487
rtoes -3.04891
lfemur -28.6072 5.76438 -8.47611
ltibia 28.1221
lfoot -10.0148 -2.74917
ltoes -21.1009
49
root -8.08753 17.8129 0.165417 -119.763 85.6761 -133.829
lowerback 3.68313 1.42528 -1.47287
upperback 4.60477 1.96704 4.47282
thorax 2.48221 0.937451 5.43575
lowerneck -15.5402 -2.15392 1.61878
upperneck 38.9398 -0.0447683 -4.72758
head 16.6462 0.115452 -2.23619
rclavicle -1.31198e-014 -8.74653e-015
rhumerus -1.26503 -2.75977 -100.078
rradius 19.4962
rwrist -31.9081
rhand -14.1076 -8.39674
rfingers 7.12502
rthumb 12.0254 -38.0313
lclavicle -1.31198e-014 -8.74653e-015
lhumerus -5.99469 -36.654 110.716
lradius 24.4069
lwrist 39.0208
lhand 169.542 62.6549
lfingers 7.12502
lthumb -164.458 33.2595
rfemur -26.0393 -0.433971 11.4835
rtibia 27.0157
rfoot -9.57466 -11.1553
rtoes -2.85458
lfemur -28.5776 5.67437 -8.43628
ltibia 28.1541
lfoot -10.0272 -2.82253
ltoes -20.2685
50
root -8.08486 17.8119 0.16434 -119.765 85.6376 -133.811
lowerback 3.67731 1.37628 -1.69633
upperback 4.63887 1.90047 4.68188
thorax 2.51669 0.895553 5.78691
lowerneck -15.5017 -2.12075 1.47096
upperneck 38.8522 0.111813 -4.88513
head 16.6006 0.134284 -2.24847
rclavicle 1.98785e-015 -1.43125e-014
rhumerus -1.29041 -2.3183 -99.8326
rradius 19.5233
rwrist -32.1292
rhand -14.1985 -8.43624
rfingers 7.12502
rthumb 11.9377 -38.0759
lclavicle 1.98785e-015 -1.43125e-014
lhumerus -5.86744 -36.4792 110.807
lradius 24.4077
lwrist 38.869
lhand 169.529 62.4697
lfingers 7.12502
lthumb -164.47 33.0734
rfemur -26.0063 -0.468371 11.5224
rtibia 27.0262
rfoot -9.61339 -11.1259
rtoes -2.67912
lfemur -28.582 5.71855 -8.4373
ltibia 28.1618
lfoot -9.98649 -2.82505
ltoes -20.5087
51
root -8.08242 17.8109 0.164484 -119.711 85.6267 -133.765
lowerback 3.62923 1.33801 -1.81338
upperback 4.67175 1.84856 4.80195
thorax 2.57792 0.863813 5.98471
lowerneck -15.475 -2.08211 1.31928
upperneck 38.7628 0.238432 -4.95041
head 16.5554 0.15242 -2.22454
rclavicle 2.14687e-014 -1.11319e-014
rhumerus -1.21193 -2.41485 -99.7223
rradius 19.4028
rwrist -32.0086
rhand -13.9239 -8.34133
rfingers 7.12502
rthumb 12.2025 -37.9654
lclavicle 2.14687e-014 -1.11319e-014
lhumerus -5.7361 -36.399 110.798
lradius 24.4418
lwrist 38.8818
lhand 169.524 62.4727
lfingers 7.12502
lthumb -164.475 33.076
rfemur -26.0145 -0.507266 11.5362
rtibia 27.0518
rfoot -9.66834 -11.0666
rtoes -2.42185
lfemur -28.6027 5.82106 -8.47105
ltibia 28.1375
lfoot -9.90374 -2.9036
ltoes -20.8496
52
root -8.07955 17.809 0.166351 -119.939 85.6802 -134.023
lowerback 3.56258 1.36572 -1.7513
upperback 4.69171 1.88451 4.70091
thorax 2.63605 0.882681 5.84398
lowerneck -15.5278 -2.09045 1.35911
upperneck 38.7767 0.178832 -4.87263
head 16.5721 0.143375 -2.20925
rclavicle -5.56597e-015 -6.52014e-014
rhumerus -1.11205 -2.86215 -99.8296
rradius 19.3172
rwrist -31.8656
rhand -13.676 -8.1886
rfingers 7.12502
rthumb 12.4415 -37.7983
lclavicle -5.56597e-015 -6.52014e-014
lhumerus -5.70914 -36.5854 110.66
lradius 24.5274
lwrist 38.8788
lhand 169.424 62.5739
lfingers 7.12502
lthumb -164.571 33.1697
rfemur -26.0569 -0.567536 11.4934
rtibia 27.0797
rfoot -9.60435 -10.9887
rtoes -2.92668
lfemur -28.6402 5.91284 -8.56255
ltibia 28.1036
lfoot -9.90191 -2.93427
ltoes -21.3396
53
root -8.0771 17.8088 0.166696 -120.415 85.6883 -134.507
lowerback 3.54058 1.38659 -1.66493
upperback 4.7093 1.91276 4.61739
thorax 2.66791 0.899257 5.70685
lowerneck -15.611 -2.11344 1.39288
upperneck 38.8328 0.101377 -4.78836
head 16.6181 0.128135 -2.19489
rclavicle -1.35174e-014 -1.51076e-014
rhumerus -1.06319 -3.07813 -99.9286
rradius 19.2995
rwrist -31.7834
rhand -13.7648 -8.11688
rfingers 7.12502
rthumb 12.3559 -37.7318
lclavicle -1.35174e-014 -1.51076e-014
lhumerus -5.70186 -36.761 110.556
lradius 24.5847
lwrist 38.7968
lhand 169.299 62.6501
lfingers 7.12502
lthumb -164.692 33.2366
rfemur -26.0557 -0.584856 11.4656
rtibia 27.0933
rfoot -9.59221 -10.9635
rtoes -3.21554
lfemur -28.6698 5.91405 -8.61041
ltibia 28.0814
lfoot -9.95639 -2.89305
ltoes -21.7934
54
root -8.07546 17.8106 0.166032 -120.8 85.646 -134.894
lowerback 3.56301 1.39228 -1.63246
upperback 4.70152 1.92161 4.63461
thorax 2.64663 0.905275 5.70538
lowerneck -15.6269 -2.1411 1.33005
upperneck 38.8479 0.0712715 -4.7578
head 16.6292 0.11137 -2.17595
rclavicle 7.95139e-015 2.38542e-015
rhumerus -1.02447 -3.49958 -99.9489
rradius 19.215
rwrist -31.5312
rhand -13.7331 -7.96078
rfingers 7.12502
rthumb 12.3864 -37.5738
lclavicle 7.95139e-015 2.38542e-015
lhumerus -5.6744 -36.6213 110.592
lradius 24.537
lwrist 38.5649
lhand 169.2 62.7739
lfingers 7.12502
lthumb -164.786 33.3533
rfemur -26.0279 -0.514837 11.4634
rtibia 27.0832
rfoot -9.63906 -11.0816
rtoes -3.02798
lfemur -28.6268 5.78825 -8.54245
ltibia 28.0742
lfoot -9.95874 -2.93055
ltoes -21.223
55
root -8.07323 17.8118 0.167166 -120.328 85.6163 -134.408
lowerback 3.59671 1.42458 -1.63665
upperback 4.69334 1.96593 4.68771
thorax 2.61272 0.928039 5.7617
lowerneck -15.6113 -2.17574 1.27343
upperneck 38.8416 0.043948 -4.76796
head 16.6211 0.0912943 -2.17446
rclavicle 9.93923e-015 2.22639e-014
rhumerus -1.00675 -3.88895 -99.9226
rradius 19.153
rwrist -31.3084
rhand -13.7659 -7.85185
rfingers 7.12502
rthumb 12.3548 -37.4668
lclavicle 9.93923e-015 2.22639e-014
lhumerus -5.64419 -36.3558 110.679
lradius 24.4666
lwrist 38.2397
lhand 169.135 62.9945
lfingers 7.12502
lthumb -164.849 33.5691
rfemur -25.9866 -0.394342 11.4985
rtibia 27.0513
rfoot -9.61484 -11.2179
rtoes -3.0082
lfemur -28.5478 5.73232 -8.43887
ltibia 28.0825
lfoot -9.95516 -2.95998
ltoes -20.6049
56
root -8.0705 17.8132 0.168596 -119.391 85.5512 -133.435
lowerback 3.62788 1.43697 -1.59529
upperback 4.70886 1.98496 4.74842
thorax 2.60875 0.938925 5.80136
lowerneck -15.6361 -2.17902 1.22343
upperneck 38.857 0.0524362 -4.75451
head 16.6367 0.089464 -2.15881
rclavicle -3.18055e-015 -2.94201e-014
rhumerus -1.03726 -3.83777 -99.9109
rradius 19.2019
rwrist -31.2836
rhand -13.9035 -7.92092
rfingers 7.12502
rthumb 12.2221 -37.5438
lclavicle -3.18055e-015 -2.94201e-014
lhumerus -5.55715 -36.1628 110.679
lradius 24.4019
lwrist 38.0175
lhand 168.982 63.1856
lfingers 7.12502
lthumb -164.997 33.7491
rfemur -25.9287 -0.31421 11.5997
rtibia 27.026
rfoot -9.59275 -11.2509
rtoes -2.9228
lfemur -28.4946 5.76595 -8.31951
ltibia 28.0896
lfoot -9.95956 -2.98444
ltoes -20.1069
57
root -8.06874 17.8135 0.167785 -119.381 85.5408 -133.425
lowerback 3.63395 1.46746 -1.51522
upperback 4.71458 2.02676 4.70226
thorax 2.61015 0.962675 5.70582
lowerneck -15.6465 -2.18542 1.27622
upperneck 38.8443 0.00372426 -4.71058
head 16.6292 0.0826769 -2.15729
rclavicle 2.38542e-015 -1.98785e-014
rhumerus -1.11167 -3.75299 -99.9258
rradius 19.3911
rwrist -31.4817
rhand -14.0461 -8.079
rfingers 7.12502
rthumb 12.0847 -37.71
lclavicle 2.38542e-015 -1.98785e-014
lhumerus -5.49429 -36.2438 110.609
lradius 24.3502
lwrist 37.9378
lhand 168.857 63.2907
lfingers 7.12502
lthumb -165.118 33.8453
rfemur -25.9224 -0.347479 11.6139
rtibia 27.0238
rfoot -9.59857 -11.2263
rtoes -3.11597
lfemur -28.4867 5.8175 -8.32589
ltibia 28.0781
lfoot -10.0097 -2.99656
ltoes -20.354
